<mxfile host="app.diagrams.net" modified="2023-02-20T09:43:38.283Z" agent="5.0 (Macintosh; Intel Mac OS X 10_15_7) AppleWebKit/537.36 (KHTML, like Gecko) Chrome/110.0.0.0 Safari/537.36" etag="shcWV6B2eH2KFCu1pKvQ" version="20.8.20" type="github">
  <diagram name="第 1 页" id="MydG-_rcRr0tfbFZN250">
    <mxGraphModel dx="994" dy="574" grid="1" gridSize="10" guides="1" tooltips="1" connect="1" arrows="1" fold="1" page="1" pageScale="1" pageWidth="827" pageHeight="1169" math="0" shadow="0">
      <root>
        <mxCell id="0" />
        <mxCell id="1" parent="0" />
        <mxCell id="htgn3hhVPYIvN9YOM_BT-1" value="" style="rounded=1;whiteSpace=wrap;html=1;strokeWidth=2;fillColor=#4282f2;strokeColor=none;" vertex="1" parent="1">
          <mxGeometry x="300" y="130" width="310" height="150" as="geometry" />
        </mxCell>
        <mxCell id="htgn3hhVPYIvN9YOM_BT-5" value="" style="endArrow=classic;html=1;labelBackgroundColor=default;strokeColor=#FFFFFF;strokeWidth=2;fontFamily=Helvetica;fontSize=12;fontColor=#FFFFFF;shape=connector;curved=1;" edge="1" parent="1">
          <mxGeometry width="50" height="50" relative="1" as="geometry">
            <mxPoint x="405" y="220" as="sourcePoint" />
            <mxPoint x="505" y="220" as="targetPoint" />
            <Array as="points">
              <mxPoint x="455" y="100" />
            </Array>
          </mxGeometry>
        </mxCell>
        <mxCell id="htgn3hhVPYIvN9YOM_BT-7" value="测试" style="text;strokeColor=none;align=center;fillColor=none;html=1;verticalAlign=middle;whiteSpace=wrap;rounded=0;fontSize=12;fontFamily=Helvetica;fontColor=#FFFFFF;" vertex="1" parent="1">
          <mxGeometry x="425" y="220" width="60" height="30" as="geometry" />
        </mxCell>
        <mxCell id="htgn3hhVPYIvN9YOM_BT-8" value="" style="endArrow=block;html=1;rounded=1;labelBackgroundColor=default;strokeColor=default;strokeWidth=2;fontFamily=Helvetica;fontSize=12;fontColor=#FFFFFF;shape=connector;endFill=1;" edge="1" parent="1">
          <mxGeometry width="50" height="50" relative="1" as="geometry">
            <mxPoint x="150" y="219" as="sourcePoint" />
            <mxPoint x="300" y="219" as="targetPoint" />
          </mxGeometry>
        </mxCell>
        <mxCell id="htgn3hhVPYIvN9YOM_BT-9" value="" style="endArrow=block;html=1;rounded=1;labelBackgroundColor=default;strokeColor=default;strokeWidth=2;fontFamily=Helvetica;fontSize=12;fontColor=#FFFFFF;shape=connector;endFill=1;" edge="1" parent="1">
          <mxGeometry width="50" height="50" relative="1" as="geometry">
            <mxPoint x="610" y="220" as="sourcePoint" />
            <mxPoint x="760" y="220" as="targetPoint" />
          </mxGeometry>
        </mxCell>
      </root>
    </mxGraphModel>
  </diagram>
</mxfile>
